<?xml version="1.0" encoding="UTF-8"?>
<svg width="45px" height="47px" viewBox="0 0 45 47" version="1.1" xmlns="http://www.w3.org/2000/svg" xmlns:xlink="http://www.w3.org/1999/xlink">
    <!-- Generator: Sketch 46 (44423) - http://www.bohemiancoding.com/sketch -->
    <title>iStock-531703296</title>
    <desc>Created with Sketch.</desc>
    <defs>
        <path d="M29.1223303,17.0944733 L1.18035068,17.0944733 C0.530022624,17.0944733 0.00285067873,16.5611658 0.00285067873,15.9032688 C0.00285067873,15.2454061 0.530022624,14.7120986 1.18035068,14.7120986 L29.1223303,14.7120986 C32.4807692,14.7120986 35.2130769,11.9479905 35.2130769,8.55046384 C35.2130769,5.15297151 32.4807692,2.3888634 29.1223303,2.3888634 L1.18035068,2.3888634 C0.530022624,2.3888634 0.00285067873,1.85555588 0.00285067873,1.19765888 C0.00285067873,0.539796202 0.530022624,0.00645434624 1.18035068,0.00645434624 L29.1223303,0.00645434624 C33.7793213,0.00645434624 37.568043,3.83930606 37.568043,8.55046384 C37.568043,13.261656 33.7793213,17.0944733 29.1223303,17.0944733 Z" id="path-1"></path>
        <path d="M29.1223303,32.1161402 L1.18035068,32.1161402 C0.530056561,32.1161402 0.00285067873,31.5827984 0.00285067873,30.9249357 C0.00285067873,30.2670387 0.530056561,29.7337312 1.18035068,29.7337312 L29.1223303,29.7337312 C36.5703394,29.7337312 42.6297624,23.6037845 42.6297624,16.0690906 C42.6297624,8.53439664 36.5703394,2.4044843 29.1223303,2.4044843 L1.18035068,2.4044843 C0.530056561,2.4044843 0.00285067873,1.87114244 0.00285067873,1.21327977 C0.00285067873,0.555382761 0.530056561,0.0220752374 1.18035068,0.0220752374 L29.1223303,0.0220752374 C37.8688914,0.0220752374 44.9847285,7.22073119 44.9847285,16.0690906 C44.9847285,24.91745 37.8688914,32.1161402 29.1223303,32.1161402 Z" id="path-3"></path>
        <path d="M17.0192308,2.39463112 L1.18035068,2.39463112 C0.530022624,2.39463112 0.00285067873,1.86135793 0.00285067873,1.20346092 C0.00285067873,0.545563915 0.530022624,0.0122563915 1.18035068,0.0122563915 L17.0192308,0.0122563915 C17.6695588,0.0122563915 18.1967308,0.545563915 18.1967308,1.20346092 C18.1967308,1.86135793 17.6695588,2.39463112 17.0192308,2.39463112 Z" id="path-5"></path>
        <path d="M17.0187896,2.40366034 L1.18035068,2.40366034 C0.530022624,2.40366034 0.00285067873,1.87035281 0.00285067873,1.21249014 C0.00285067873,0.554593134 0.530022624,0.0212856099 1.18035068,0.0212856099 L17.0187896,0.0212856099 C17.6691176,0.0212856099 18.1962896,0.554593134 18.1962896,1.21249014 C18.1962896,1.87035281 17.6691176,2.40366034 17.0187896,2.40366034 Z" id="path-7"></path>
        <path d="M17.0192308,2.40942805 L1.18035068,2.40942805 C0.530022624,2.40942805 0.00285067873,1.87612053 0.00285067873,1.21825785 C0.00285067873,0.560360847 0.530022624,0.0270533236 1.18035068,0.0270533236 L17.0192308,0.0270533236 C17.6695588,0.0270533236 18.1967308,0.560360847 18.1967308,1.21825785 C18.1967308,1.87612053 17.6695588,2.40942805 17.0192308,2.40942805 Z" id="path-9"></path>
    </defs>
    <g id="Page-1" stroke="none" stroke-width="1" fill="none" fill-rule="evenodd">
        <g id="iStock-531703296">
            <g id="Group-4" transform="translate(0.000000, 7.518627)">
                <mask id="mask-2" fill="white">
                    <use xlink:href="#path-1"></use>
                </mask>
                <use id="Clip-3" fill="#FFFFFF" xlink:href="#path-1"></use>
                <polygon id="Fill-2" mask="url(#mask-2)" points="-65.529638 84.8677867 104.154977 84.8677867 104.154977 -52.4573557 -65.529638 -52.4573557"></polygon>
            </g>
            <g id="Group-7">
                <mask id="mask-4" fill="white">
                    <use xlink:href="#path-3"></use>
                </mask>
                <use id="Clip-6" fill="#FFFFFF" xlink:href="#path-3"></use>
                <polygon id="Fill-5" mask="url(#mask-4)" points="-65.529638 92.3864134 104.154977 92.3864134 104.154977 -44.938729 -65.529638 -44.938729"></polygon>
            </g>
            <g id="Group-10" transform="translate(0.000000, 14.865595)">
                <mask id="mask-6" fill="white">
                    <use xlink:href="#path-5"></use>
                </mask>
                <use id="Clip-9" fill="#FFFFFF" xlink:href="#path-5"></use>
                <polygon id="Fill-8" mask="url(#mask-6)" points="-65.529638 77.5208181 104.154977 77.5208181 104.154977 -59.8043243 -65.529638 -59.8043243"></polygon>
            </g>
            <g id="Group-13" transform="translate(0.000000, 37.215486)">
                <mask id="mask-8" fill="white">
                    <use xlink:href="#path-7"></use>
                </mask>
                <use id="Clip-12" fill="#FFFFFF" xlink:href="#path-7"></use>
                <polygon id="Fill-11" mask="url(#mask-8)" points="-65.529638 55.1709277 104.154977 55.1709277 104.154977 -82.1542148 -65.529638 -82.1542148"></polygon>
            </g>
            <g id="Group-16" transform="translate(0.000000, 44.562454)">
                <mask id="mask-10" fill="white">
                    <use xlink:href="#path-9"></use>
                </mask>
                <use id="Clip-15" fill="#FFFFFF" xlink:href="#path-9"></use>
                <polygon id="Fill-14" mask="url(#mask-10)" points="-65.529638 47.8239591 104.154977 47.8239591 104.154977 -89.5011833 -65.529638 -89.5011833"></polygon>
            </g>
        </g>
    </g>
</svg>