<?xml version="1.0" encoding="UTF-8" standalone="no"?><!DOCTYPE svg PUBLIC "-//W3C//DTD SVG 1.1//EN" "http://www.w3.org/Graphics/SVG/1.1/DTD/svg11.dtd"><svg width="100%" height="100%" viewBox="0 0 88 100" version="1.1" xmlns="http://www.w3.org/2000/svg" xmlns:xlink="http://www.w3.org/1999/xlink" xml:space="preserve" style="fill-rule:evenodd;clip-rule:evenodd;stroke-linejoin:round;stroke-miterlimit:1.41421;"><g><path d="M17.233,40.326l0,44.216l-16.529,-9.539l0,-44.216l16.529,9.539Z" style="fill:#fff;"/><path d="M60.769,90.311l-16.769,9.679l0,0.01l-16.768,-9.679l0,-55.764l-21.538,-12.429l11.539,-6.659l21.768,12.559l0,49.704l21.768,12.579Z" style="fill:#fff;"/><path d="M82.307,77.873l-11.539,6.659l-21.768,-12.559l0,-49.705l-21.768,-12.579l16.768,-9.679l0,-0.01l16.769,9.679l0,55.764l21.538,12.43Z" style="fill:#fff;"/><path d="M87.296,24.997l0,44.216l-16.528,-9.539l0,-44.215l16.528,9.538Z" style="fill:#fff;"/></g></svg>